<svg width="512" height="512" viewBox="0 0 512 512" fill="none" xmlns="http://www.w3.org/2000/svg">
    <circle cx="124.145" cy="387.855" r="124.145" fill="black"/>
    <rect width="248.289" height="248.289" rx="30" fill="black"/>
    <path d="M461.038 239.754C464.188 242.903 461.957 248.289 457.503 248.289H318.208C313.754 248.289 311.523 242.903 314.673 239.754L384.319 170.106C386.272 168.153 389.438 168.153 391.391 170.106L461.038 239.754ZM512 193.792C512 198.247 506.614 200.478 503.464 197.328L433.816 127.68C431.864 125.727 431.864 122.562 433.816 120.609L503.464 50.9613C506.614 47.8115 512 50.0423 512 54.4968V193.792ZM341.893 120.608C343.845 122.561 343.845 125.726 341.893 127.679L272.246 197.327C269.096 200.477 263.71 198.246 263.71 193.791V54.4969C263.71 50.0423 269.096 47.8115 272.246 50.9613L341.893 120.608ZM391.39 78.1823C389.437 80.1349 386.271 80.1349 384.318 78.1823L314.672 8.53553C311.522 5.38571 313.753 0 318.207 0H457.502C461.956 0 464.187 5.38574 461.037 8.53555L391.39 78.1823Z" fill="black"/>
    <path d="M384.32 267.246C386.272 265.294 389.438 265.294 391.391 267.246L508.464 384.32C510.417 386.272 510.417 389.438 508.464 391.391L391.391 508.464C389.438 510.417 386.272 510.417 384.32 508.464L267.246 391.391C265.293 389.438 265.293 386.272 267.246 384.32L384.32 267.246Z" fill="black"/>
</svg>
